# xmcd CD database file
#
# Track frame offsets:
#	150
#	15047
#	28229
#	39441
#	51496
#	63363
#	78548
#	94156
#	105003
#	118284
#	132743
#	143792
#
# Disc length: 2172 seconds
#
# Revision: 0
# Processed by: cddbd v1.4PL0 Copyright (c) Steve Scherf et al.
# Submitted via: CDex 1.50beta8
#
DISCID=9f087a0c
DTITLE=Susanne Lane - My country colection
DYEAR=1996
DGENRE=Country
TTITLE0=Crazy
TTITLE1=Help me make it through the night
TTITLE2=Walking after midnight
TTITLE3=I fall to pieces
TTITLE4=sweet dreams
TTITLE5=Take me home "Country roads"
TTITLE6=Jambalaya
TTITLE7=Bad moon rising
TTITLE8=Cottonfield
TTITLE9=Rosegarden
TTITLE10=That'll be the day
TTITLE11=Islands in the stream
EXTD=YEAR: 1996
EXTT0=
EXTT1=
EXTT2=
EXTT3=
EXTT4=
EXTT5=
EXTT6=
EXTT7=
EXTT8=
EXTT9=
EXTT10=
EXTT11=
PLAYORDER=
